# xmcd CD database file generated by Grip 3.1.4
# 
# Track frame offsets:
#       182
#       10715
#       21375
#       32230
#       43795
#       54335
#       65862
#       78532
#       90137
#       102442
#       114592
#       129070
#       139982
#       151092
#       161890
#       174882
#       187940
#       200730
#       213035
#       226290
# 
# Disc length: 3195 seconds
# 
# Revision: 2
# Processed by: cddbd v1.5.1PL0 Copyright (c) Steve Scherf et al.
# Submitted via: Grip 3.1.4
# 
DISCID=030c7914
DTITLE=Jimmy Reed - The Very Best Of Jimmy Reed [CD2]
DYEAR=1995
DGENRE=Blues
TTITLE0=I Told You Baby
TTITLE1=Take Out Some Insurance
TTITLE2=Baby, What You Want Me To Do
TTITLE3=Hush Hush
TTITLE4=Found Love
TTITLE5=Come Love
TTITLE6=Big Boss Man
TTITLE7=Close Together
TTITLE8=Tell Me You Love Me
TTITLE9=Bright Lights, Big City
TTITLE10=Baby, What's Wrong
TTITLE11=Aw Shucks, Hush Your Mouth
TTITLE12=Good Lover
TTITLE13=Too Much
TTITLE14=I'll Change My Style
TTITLE15=Let's Get Together
TTITLE16=Shame, Shame, Shame
TTITLE17=When You're Doing All Right
TTITLE18=I'm Going Upside Your Head
TTITLE19=I'm The Man Down There
EXTD=
EXTT0=
EXTT1=
EXTT2=
EXTT3=
EXTT4=
EXTT5=
EXTT6=
EXTT7=
EXTT8=
EXTT9=
EXTT10=
EXTT11=
EXTT12=
EXTT13=
EXTT14=
EXTT15=
EXTT16=
EXTT17=
EXTT18=
EXTT19=
PLAYORDER=
